<svg width="309" height="31" viewBox="0 0 309 31" fill="none" xmlns="http://www.w3.org/2000/svg">
<path d="M41.9143 5.15C42.1929 6.15714 42.3857 7.50714 42.5143 9.22143C42.6643 10.9357 42.7286 12.4143 42.7286 13.7L42.8571 15.5C42.8571 20.1929 42.5143 23.6429 41.9143 25.85C41.3786 27.7786 40.1357 29.0214 38.2071 29.5571C37.2 29.8357 35.3571 30.0286 32.5286 30.1571C29.7429 30.3071 27.1929 30.3714 24.8357 30.3714L21.4286 30.5C12.45 30.5 6.85714 30.1571 4.65 29.5571C2.72143 29.0214 1.47857 27.7786 0.942857 25.85C0.664286 24.8429 0.471429 23.4929 0.342857 21.7786C0.192857 20.0643 0.128571 18.5857 0.128571 17.3L0 15.5C0 10.8071 0.342857 7.35714 0.942857 5.15C1.47857 3.22143 2.72143 1.97857 4.65 1.44286C5.65714 1.16429 7.5 0.971429 10.3286 0.842857C13.1143 0.692857 15.6643 0.628571 18.0214 0.628571L21.4286 0.5C30.4071 0.5 36 0.842857 38.2071 1.44286C40.1357 1.97857 41.3786 3.22143 41.9143 5.15Z" fill="#FF0033"/>
<path d="M66.2235 6.73196L69.2244 15.182L72.2126 6.73196H75.9041L70.9194 18.3335V25.0132H67.5294V18.3335L62.5446 6.73196H66.2235ZM76.3059 18.7227V17.7308C76.3059 16.6678 76.4357 15.7303 76.695 14.9183C76.9545 14.098 77.3229 13.4117 77.8001 12.8592C78.2771 12.3067 78.8464 11.8882 79.5075 11.6036C80.1772 11.319 80.9179 11.1767 81.7301 11.1767C82.5587 11.1767 83.3036 11.319 83.9649 11.6036C84.6345 11.8882 85.2079 12.3067 85.6851 12.8592C86.1705 13.4117 86.5389 14.098 86.79 14.9183C87.0495 15.7303 87.1791 16.6678 87.1791 17.7308V18.7227C87.1791 19.7858 87.0495 20.7233 86.79 21.5354C86.5389 22.3473 86.1705 23.0336 85.6851 23.5944C85.2079 24.1469 84.6345 24.5654 83.9649 24.8499C83.3036 25.1261 82.5671 25.2644 81.7551 25.2644C80.9432 25.2644 80.2024 25.1261 79.5328 24.8499C78.8715 24.5654 78.2981 24.1469 77.8125 23.5944C77.3271 23.0336 76.9545 22.3473 76.695 21.5354C76.4357 20.7233 76.3059 19.7858 76.3059 18.7227ZM79.5328 17.7308V18.7227C79.5328 19.384 79.5829 19.9574 79.6834 20.4429C79.7837 20.9199 79.9303 21.3176 80.1229 21.6356C80.3237 21.9539 80.5581 22.1924 80.826 22.3514C81.1022 22.502 81.4119 22.5774 81.7551 22.5774C82.1233 22.5774 82.4456 22.502 82.7218 22.3514C82.998 22.1924 83.2284 21.9539 83.4124 21.6356C83.5965 21.3176 83.7347 20.9199 83.8269 20.4429C83.9188 19.9574 83.9649 19.384 83.9649 18.7227V17.7308C83.9649 17.0863 83.9104 16.5213 83.8016 16.0358C83.7013 15.5503 83.5547 15.1485 83.3623 14.8305C83.1696 14.5124 82.9354 14.2738 82.659 14.1148C82.3828 13.9474 82.0731 13.8637 81.7301 13.8637C81.3951 13.8637 81.0939 13.9474 80.826 14.1148C80.5581 14.2738 80.3237 14.5124 80.1229 14.8305C79.9303 15.1485 79.7837 15.5503 79.6834 16.0358C79.5829 16.5213 79.5328 17.0863 79.5328 17.7308ZM96.1944 21.7739V11.4278H99.4211V25.0132H96.3951L96.1944 21.7739ZM96.6086 18.9613L97.5504 18.9362C97.5504 19.8486 97.4666 20.6898 97.2992 21.4599C97.1319 22.2301 96.8724 22.8997 96.5207 23.4689C96.1691 24.038 95.7214 24.4818 95.1772 24.7998C94.6414 25.1094 94.0054 25.2644 93.2687 25.2644C92.7079 25.2644 92.1973 25.1722 91.737 24.9881C91.2765 24.7955 90.879 24.4985 90.5441 24.0967C90.2094 23.6866 89.9499 23.1633 89.7658 22.5271C89.5815 21.8827 89.4894 21.1126 89.4894 20.2169V11.4278H92.7163V20.242C92.7163 20.6605 92.7497 21.0204 92.8168 21.3217C92.892 21.6149 92.9968 21.8534 93.1307 22.0374C93.2646 22.2134 93.4194 22.3389 93.5953 22.4141C93.771 22.4896 93.9634 22.5271 94.1728 22.5271C94.7837 22.5271 95.2652 22.3724 95.6166 22.0625C95.9766 21.7529 96.2319 21.3301 96.3825 20.7944C96.5334 20.2504 96.6086 19.6393 96.6086 18.9613ZM109.328 6.73196V25.0132H105.988V6.73196H109.328ZM113.936 6.73196V9.54446H101.455V6.73196H113.936ZM121.708 21.7739V11.4278H124.935V25.0132H121.909L121.708 21.7739ZM122.122 18.9613L123.064 18.9362C123.064 19.8486 122.98 20.6898 122.813 21.4599C122.645 22.2301 122.386 22.8997 122.034 23.4689C121.683 24.038 121.235 24.4818 120.691 24.7998C120.155 25.1094 119.519 25.2644 118.782 25.2644C118.221 25.2644 117.711 25.1722 117.25 24.9881C116.79 24.7955 116.392 24.4985 116.058 24.0967C115.723 23.6866 115.463 23.1633 115.279 22.5271C115.095 21.8827 115.003 21.1126 115.003 20.2169V11.4278H118.23V20.242C118.23 20.6605 118.263 21.0204 118.33 21.3217C118.406 21.6149 118.51 21.8534 118.644 22.0374C118.778 22.2134 118.933 22.3389 119.109 22.4141C119.284 22.4896 119.477 22.5271 119.686 22.5271C120.297 22.5271 120.778 22.3724 121.13 22.0625C121.49 21.7529 121.745 21.3301 121.896 20.7944C122.047 20.2504 122.122 19.6393 122.122 18.9613ZM127.684 5.7275H130.899V21.9746L130.66 25.0132H127.684V5.7275ZM138.093 17.7308V18.7102C138.093 19.8067 138.001 20.7652 137.817 21.5855C137.641 22.3974 137.369 23.0797 137.001 23.6321C136.641 24.1762 136.185 24.5864 135.632 24.8626C135.079 25.1304 134.431 25.2644 133.686 25.2644C133.008 25.2644 132.422 25.1094 131.928 24.7998C131.434 24.4818 131.02 24.0423 130.685 23.4815C130.359 22.9121 130.095 22.2425 129.894 21.4726C129.693 20.7024 129.547 19.8528 129.454 18.9236V17.5174C129.538 16.5966 129.681 15.7512 129.882 14.9811C130.082 14.2027 130.346 13.533 130.673 12.9722C130.999 12.403 131.409 11.9636 131.903 11.6538C132.405 11.3358 132.995 11.1767 133.673 11.1767C134.427 11.1767 135.079 11.3148 135.632 11.5911C136.193 11.8589 136.653 12.2691 137.013 12.8215C137.373 13.3656 137.641 14.0478 137.817 14.8681C138.001 15.6884 138.093 16.6427 138.093 17.7308ZM134.879 18.7102V17.7308C134.879 17.078 134.845 16.5129 134.778 16.0358C134.72 15.5587 134.615 15.1611 134.464 14.843C134.314 14.5249 134.1 14.2864 133.824 14.1273C133.548 13.9683 133.196 13.8888 132.769 13.8888C132.384 13.8888 132.058 13.9641 131.79 14.1148C131.522 14.2655 131.296 14.4789 131.112 14.7551C130.928 15.023 130.785 15.3411 130.685 15.7094C130.593 16.0777 130.53 16.4753 130.497 16.9022V19.5389C130.539 20.1081 130.635 20.6229 130.785 21.0832C130.944 21.5354 131.183 21.8951 131.501 22.163C131.828 22.4225 132.259 22.5524 132.794 22.5524C133.213 22.5524 133.556 22.4812 133.824 22.3389C134.092 22.1881 134.301 21.9622 134.452 21.6607C134.611 21.3511 134.72 20.9536 134.778 20.468C134.845 19.9825 134.879 19.3966 134.879 18.7102ZM145.739 25.2644C144.836 25.2644 144.032 25.1261 143.329 24.8499C142.634 24.5737 142.044 24.1719 141.558 23.6446C141.073 23.1172 140.7 22.4686 140.441 21.6984C140.19 20.9285 140.064 20.0453 140.064 19.0492V17.8313C140.064 16.7013 140.194 15.7219 140.454 14.8932C140.713 14.0562 141.073 13.3656 141.533 12.8215C142.002 12.2691 142.563 11.8589 143.216 11.5911C143.877 11.3148 144.605 11.1767 145.4 11.1767C146.254 11.1767 146.999 11.319 147.635 11.6036C148.28 11.8798 148.811 12.2942 149.23 12.8466C149.649 13.3991 149.958 14.0855 150.159 14.9058C150.368 15.7177 150.473 16.6594 150.473 17.7308V19.2752H141.508V16.9273H147.309V16.6134C147.292 16.0274 147.221 15.5294 147.096 15.1192C146.97 14.7091 146.769 14.3994 146.493 14.1901C146.225 13.9725 145.857 13.8637 145.388 13.8637C145.02 13.8637 144.702 13.939 144.434 14.0897C144.166 14.232 143.948 14.458 143.781 14.7677C143.622 15.069 143.5 15.475 143.417 15.9856C143.333 16.4878 143.291 17.1031 143.291 17.8313V19.0492C143.291 19.6937 143.35 20.242 143.467 20.694C143.584 21.1376 143.756 21.5017 143.982 21.7863C144.208 22.0625 144.484 22.2635 144.81 22.3891C145.137 22.5146 145.518 22.5774 145.953 22.5774C146.606 22.5774 147.179 22.4602 147.673 22.2258C148.167 21.983 148.594 21.6607 148.954 21.2589L150.297 23.2304C150.054 23.5567 149.724 23.879 149.305 24.197C148.887 24.5069 148.38 24.7621 147.786 24.9631C147.2 25.1639 146.518 25.2644 145.739 25.2644ZM164.937 18.4089H161.133V15.5964H164.937C165.515 15.5964 165.98 15.475 166.331 15.2323C166.691 14.9811 166.95 14.6337 167.109 14.1901C167.277 13.7465 167.361 13.2442 167.361 12.6834C167.361 12.1393 167.277 11.6287 167.109 11.1516C166.95 10.6661 166.691 10.2769 166.331 9.98392C165.98 9.69095 165.515 9.54446 164.937 9.54446H162.162V25.0132H158.798V6.73196H164.937C166.151 6.73196 167.189 6.98726 168.051 7.49786C168.922 8.00846 169.591 8.7116 170.06 9.60725C170.529 10.4945 170.763 11.5115 170.763 12.6583C170.763 13.8469 170.529 14.8681 170.06 15.7219C169.591 16.5757 168.922 17.237 168.051 17.7057C167.189 18.1745 166.151 18.4089 164.937 18.4089ZM176.526 5.7275V25.0132H173.299V5.7275H176.526ZM185.629 22.0751V15.5461C185.629 15.1025 185.571 14.7509 185.454 14.4914C185.345 14.232 185.181 14.0436 184.964 13.9264C184.746 13.8009 184.478 13.7381 184.16 13.7381C183.817 13.7381 183.528 13.8092 183.294 13.9516C183.06 14.0855 182.884 14.2822 182.766 14.5417C182.658 14.7928 182.603 15.0899 182.603 15.4331H179.376C179.376 14.8639 179.489 14.324 179.715 13.8134C179.941 13.3028 180.268 12.8508 180.695 12.4574C181.122 12.0556 181.637 11.7417 182.239 11.5157C182.842 11.2897 183.516 11.1767 184.261 11.1767C185.148 11.1767 185.935 11.3274 186.621 11.6287C187.316 11.9217 187.86 12.3946 188.253 13.0475C188.655 13.6921 188.856 14.5375 188.856 15.5838V21.7863C188.856 22.4812 188.894 23.0714 188.969 23.5567C189.053 24.0423 189.174 24.4565 189.333 24.7998V25.0132H186.069C185.926 24.6616 185.818 24.218 185.742 23.6823C185.667 23.1382 185.629 22.6025 185.629 22.0751ZM186.044 16.7264L186.056 18.7353H184.7C184.323 18.7353 183.989 18.7897 183.696 18.8985C183.411 19.0074 183.168 19.1622 182.967 19.3631C182.766 19.564 182.616 19.8026 182.516 20.0788C182.415 20.355 182.365 20.6564 182.365 20.9827C182.365 21.3594 182.419 21.6734 182.528 21.9245C182.637 22.1673 182.796 22.3514 183.005 22.4769C183.214 22.5941 183.47 22.6526 183.771 22.6526C184.198 22.6526 184.566 22.5607 184.876 22.3764C185.194 22.1924 185.433 21.9746 185.592 21.7235C185.759 21.4642 185.822 21.2214 185.78 20.9954L186.508 22.3012C186.424 22.6109 186.295 22.9372 186.119 23.2805C185.943 23.6238 185.717 23.9461 185.441 24.2474C185.173 24.5486 184.842 24.7955 184.449 24.9881C184.064 25.1722 183.608 25.2644 183.08 25.2644C182.335 25.2644 181.662 25.1011 181.059 24.7747C180.465 24.4481 179.996 23.9879 179.653 23.3934C179.31 22.7909 179.138 22.0711 179.138 21.2339C179.138 20.5475 179.251 19.9281 179.477 19.3757C179.703 18.8232 180.034 18.3503 180.469 17.9569C180.912 17.5634 181.473 17.2621 182.151 17.0528C182.829 16.8352 183.624 16.7264 184.537 16.7264H186.044ZM194.82 23.4939L197.695 11.4278H201.06L196.59 27.0599C196.49 27.4029 196.352 27.7713 196.176 28.1647C196 28.5581 195.77 28.9306 195.486 29.2822C195.201 29.6422 194.845 29.9351 194.418 30.161C193.991 30.3871 193.481 30.5 192.887 30.5C192.619 30.5 192.384 30.4792 192.183 30.4372C191.982 30.3954 191.761 30.341 191.518 30.2741L191.505 27.7252C191.581 27.7336 191.656 27.7379 191.731 27.7379C191.807 27.7462 191.878 27.7503 191.945 27.7503C192.347 27.7503 192.673 27.6918 192.924 27.5746C193.184 27.4657 193.393 27.29 193.552 27.0472C193.711 26.8128 193.849 26.5031 193.966 26.1181L194.82 23.4939ZM193.816 11.4278L196.051 21.3594L196.553 24.9755L194.355 25.3522L190.35 11.4278H193.816ZM206.158 5.7275V25.0132H202.931V5.7275H206.158ZM212.511 11.4278V25.0132H209.284V11.4278H212.511ZM209.121 7.88709C209.121 7.37649 209.28 6.95797 209.598 6.63153C209.916 6.29669 210.352 6.12928 210.904 6.12928C211.457 6.12928 211.888 6.29669 212.197 6.63153C212.507 6.95797 212.662 7.37649 212.662 7.88709C212.662 8.38934 212.507 8.80786 212.197 9.14268C211.888 9.46912 211.457 9.63236 210.904 9.63236C210.352 9.63236 209.916 9.46912 209.598 9.14268C209.28 8.80786 209.121 8.38934 209.121 7.88709ZM221.628 21.3845C221.628 21.125 221.544 20.8949 221.375 20.694C221.216 20.4931 220.961 20.288 220.61 20.0788C220.258 19.8695 219.793 19.6435 219.217 19.4008C218.589 19.1497 218.032 18.8944 217.545 18.6349C217.07 18.367 216.663 18.074 216.328 17.756C215.994 17.4295 215.743 17.0612 215.574 16.6511C215.407 16.2325 215.323 15.7512 215.323 15.2071C215.323 14.6463 215.428 14.1231 215.638 13.6377C215.846 13.1522 216.148 12.7253 216.543 12.357C216.943 11.9887 217.43 11.6999 217.998 11.4906C218.568 11.2814 219.208 11.1767 219.92 11.1767C220.916 11.1767 221.769 11.3567 222.48 11.7166C223.2 12.0682 223.749 12.562 224.126 13.1982C224.51 13.8344 224.703 14.5668 224.703 15.3955H221.488C221.488 15.0774 221.435 14.7886 221.325 14.5291C221.216 14.2696 221.045 14.0645 220.811 13.9139C220.575 13.7548 220.275 13.6753 219.907 13.6753C219.596 13.6753 219.328 13.7381 219.103 13.8637C218.885 13.9892 218.718 14.1566 218.602 14.3659C218.484 14.5668 218.424 14.797 218.424 15.0565C218.424 15.2574 218.463 15.4331 218.538 15.5838C218.621 15.7345 218.752 15.881 218.928 16.0233C219.103 16.1572 219.337 16.2995 219.63 16.4502C219.933 16.5924 220.303 16.7599 220.747 16.9524C221.651 17.2956 222.401 17.6597 222.995 18.0447C223.59 18.4214 224.034 18.8651 224.325 19.3757C224.619 19.8779 224.765 20.5057 224.765 21.2589C224.765 21.8534 224.653 22.3974 224.426 22.8914C224.201 23.3851 223.873 23.8121 223.447 24.1719C223.029 24.5236 222.523 24.7955 221.928 24.9881C221.334 25.1722 220.668 25.2644 219.933 25.2644C218.853 25.2644 217.94 25.0509 217.194 24.6241C216.459 24.197 215.898 23.6446 215.512 22.9666C215.135 22.2886 214.946 21.5812 214.946 20.8447H218.036C218.053 21.3301 218.15 21.7151 218.325 21.9999C218.51 22.2761 218.748 22.4686 219.041 22.5774C219.333 22.6863 219.648 22.7407 219.982 22.7407C220.35 22.7407 220.655 22.6904 220.899 22.5899C221.141 22.4812 221.321 22.3263 221.439 22.1253C221.563 21.9161 221.628 21.6693 221.628 21.3845ZM232.878 11.4278V13.8762H226.085V11.4278H232.878ZM227.793 8.08799H230.994V21.0455C230.994 21.4389 231.035 21.7445 231.118 21.9622C231.202 22.1714 231.324 22.3136 231.483 22.3891C231.65 22.4643 231.851 22.502 232.085 22.502C232.26 22.502 232.43 22.4896 232.588 22.4643C232.747 22.4392 232.865 22.4141 232.94 22.3891L232.927 24.9504C232.685 25.0426 232.417 25.1178 232.123 25.1765C231.83 25.235 231.478 25.2644 231.069 25.2644C230.415 25.2644 229.843 25.1388 229.348 24.8876C228.864 24.6281 228.483 24.2096 228.206 23.6321C227.93 23.0461 227.793 22.2802 227.793 21.3344V8.08799ZM244.955 21.6356L247.869 6.73196H249.74L250.003 9.7328L246.838 25.0132H244.843L244.955 21.6356ZM243.523 6.73196L245.859 21.6106L245.709 25.0132H243.549L240.185 6.73196H243.523ZM252.678 21.5478L255 6.73196H258.328L254.975 25.0132H252.815L252.678 21.5478ZM250.668 6.73196L253.595 21.6984L253.657 25.0132H251.673L248.559 9.70768L248.823 6.73196H250.668ZM263.69 11.4278V25.0132H260.463V11.4278H263.69ZM260.298 7.88709C260.298 7.37649 260.458 6.95797 260.775 6.63153C261.095 6.29669 261.53 6.12928 262.083 6.12928C262.633 6.12928 263.066 6.29669 263.375 6.63153C263.685 6.95797 263.84 7.37649 263.84 7.88709C263.84 8.38934 263.685 8.80786 263.375 9.14268C263.066 9.46912 262.633 9.63236 262.083 9.63236C261.53 9.63236 261.095 9.46912 260.775 9.14268C260.458 8.80786 260.298 8.38934 260.298 7.88709ZM275.78 22.3263V25.0132H267.243V22.3263H275.78ZM275.653 13.4493L268.423 25.0132H266.313V22.9164L273.508 11.4278H275.653V13.4493ZM274.488 11.4278V14.1273H266.426V11.4278H274.488ZM284.343 22.0751V15.5461C284.343 15.1025 284.285 14.7509 284.167 14.4914C284.058 14.232 283.895 14.0436 283.678 13.9264C283.46 13.8009 283.192 13.7381 282.875 13.7381C282.53 13.7381 282.243 13.8092 282.007 13.9516C281.773 14.0855 281.598 14.2822 281.48 14.5417C281.37 14.7928 281.317 15.0899 281.317 15.4331H278.09C278.09 14.8639 278.203 14.324 278.428 13.8134C278.655 13.3028 278.981 12.8508 279.408 12.4574C279.836 12.0556 280.35 11.7417 280.953 11.5157C281.555 11.2897 282.23 11.1767 282.975 11.1767C283.863 11.1767 284.649 11.3274 285.335 11.6287C286.029 11.9217 286.573 12.3946 286.968 13.0475C287.368 13.6921 287.57 14.5375 287.57 15.5838V21.7863C287.57 22.4812 287.608 23.0714 287.683 23.5567C287.767 24.0423 287.887 24.4565 288.048 24.7998V25.0132H284.782C284.64 24.6616 284.531 24.218 284.456 23.6823C284.381 23.1382 284.343 22.6025 284.343 22.0751ZM284.758 16.7264L284.769 18.7353H283.415C283.038 18.7353 282.703 18.7897 282.41 18.8985C282.125 19.0074 281.883 19.1622 281.681 19.3631C281.48 19.564 281.33 19.8026 281.229 20.0788C281.128 20.355 281.079 20.6564 281.079 20.9827C281.079 21.3594 281.133 21.6734 281.242 21.9245C281.351 22.1673 281.51 22.3514 281.72 22.4769C281.928 22.5941 282.183 22.6526 282.485 22.6526C282.911 22.6526 283.28 22.5607 283.59 22.3764C283.908 22.1924 284.145 21.9746 284.306 21.7235C284.473 21.4642 284.535 21.2214 284.495 20.9954L285.221 22.3012C285.138 22.6109 285.009 22.9372 284.833 23.2805C284.658 23.6238 284.43 23.9461 284.154 24.2474C283.886 24.5486 283.556 24.7955 283.162 24.9881C282.778 25.1722 282.322 25.2644 281.795 25.2644C281.049 25.2644 280.376 25.1011 279.772 24.7747C279.178 24.4481 278.709 23.9879 278.366 23.3934C278.023 22.7909 277.852 22.0711 277.852 21.2339C277.852 20.5475 277.965 19.9281 278.19 19.3757C278.418 18.8232 278.748 18.3503 279.183 17.9569C279.626 17.5634 280.188 17.2621 280.865 17.0528C281.544 16.8352 282.339 16.7264 283.25 16.7264H284.758ZM293.598 14.2529V25.0132H290.383V11.4278H293.433L293.598 14.2529ZM296.835 11.3274L296.812 14.5291C296.643 14.4956 296.456 14.4705 296.246 14.4538C296.045 14.437 295.856 14.4287 295.68 14.4287C295.288 14.4287 294.948 14.4956 294.665 14.6296C294.38 14.7635 294.14 14.956 293.949 15.2071C293.756 15.4583 293.608 15.768 293.51 16.1363C293.409 16.4962 293.345 16.9064 293.321 17.3667L292.668 17.2537C292.668 16.3832 292.734 15.5796 292.869 14.843C293.01 14.1064 293.216 13.4661 293.484 12.922C293.76 12.3695 294.099 11.9426 294.5 11.6413C294.903 11.3316 295.363 11.1767 295.882 11.1767C296.04 11.1767 296.212 11.1935 296.396 11.2269C296.589 11.252 296.735 11.2855 296.835 11.3274ZM305.199 22.1002V5.7275H308.413V25.0132L305.499 25.0259L305.199 22.1002ZM298.016 18.7353V17.756C298.016 16.6427 298.113 15.6759 298.305 14.8556C298.507 14.0269 298.794 13.3405 299.171 12.7964C299.557 12.2523 300.026 11.8464 300.577 11.5785C301.13 11.3106 301.758 11.1767 302.46 11.1767C303.123 11.1767 303.699 11.3358 304.194 11.6538C304.687 11.9636 305.103 12.403 305.437 12.9722C305.78 13.5414 306.056 14.2194 306.266 15.0062C306.474 15.7847 306.622 16.6427 306.705 17.5802V18.9864C306.605 19.8821 306.45 20.7149 306.24 21.485C306.039 22.2551 305.767 22.9205 305.424 23.4815C305.081 24.0423 304.663 24.4818 304.168 24.7998C303.684 25.1094 303.11 25.2644 302.448 25.2644C301.745 25.2644 301.117 25.1261 300.566 24.8499C300.022 24.5654 299.557 24.1511 299.171 23.6071C298.794 23.0544 298.507 22.3724 298.305 21.5604C298.113 20.7401 298.016 19.7984 298.016 18.7353ZM301.243 17.756V18.7353C301.243 19.3966 301.28 19.97 301.357 20.4555C301.432 20.9326 301.548 21.326 301.708 21.6356C301.875 21.9371 302.092 22.163 302.36 22.3136C302.636 22.4559 302.973 22.5271 303.365 22.5271C303.868 22.5271 304.273 22.4015 304.582 22.1506C304.901 21.8994 305.143 21.5561 305.31 21.1209C305.478 20.6773 305.587 20.175 305.638 19.6142V16.9649C305.613 16.5129 305.546 16.0986 305.437 15.7219C305.328 15.3452 305.182 15.023 304.998 14.7551C304.813 14.4789 304.586 14.2655 304.318 14.1148C304.05 13.9641 303.738 13.8888 303.378 13.8888C302.983 13.8888 302.649 13.9683 302.373 14.1273C302.105 14.278 301.888 14.5082 301.721 14.8179C301.56 15.1276 301.44 15.5294 301.357 16.0233C301.28 16.5087 301.243 17.0863 301.243 17.756Z" fill="white"/>
<path fill-rule="evenodd" clip-rule="evenodd" d="M10.4902 8.94213C10.4902 8.7274 10.5753 8.52146 10.7266 8.36963C10.8779 8.21779 11.0832 8.1325 11.2972 8.1325H30.6638C30.8778 8.1325 31.083 8.21779 31.2345 8.36963C31.3858 8.52146 31.4707 8.7274 31.4707 8.94213C31.4707 9.15684 31.3858 9.36277 31.2345 9.5146C31.083 9.66643 30.8778 9.75173 30.6638 9.75173H11.2972C11.0832 9.75173 10.8779 9.66643 10.7266 9.5146C10.5753 9.36277 10.4902 9.15684 10.4902 8.94213ZM10.4902 13.2601C10.4902 13.0453 10.5753 12.8394 10.7266 12.6876C10.8779 12.5357 11.0832 12.4504 11.2972 12.4504H30.6638C30.8778 12.4504 31.083 12.5357 31.2345 12.6876C31.3858 12.8394 31.4707 13.0453 31.4707 13.2601C31.4707 13.4748 31.3858 13.6807 31.2345 13.8325C31.083 13.9844 30.8778 14.0697 30.6638 14.0697H11.2972C11.0832 14.0697 10.8779 13.9844 10.7266 13.8325C10.5753 13.6807 10.4902 13.4748 10.4902 13.2601ZM10.4902 17.578C10.4902 17.3633 10.5753 17.1574 10.7266 17.0055C10.8779 16.8537 11.0832 16.7684 11.2972 16.7684H19.9046C20.1186 16.7684 20.3238 16.8537 20.4752 17.0055C20.6265 17.1574 20.7115 17.3633 20.7115 17.578C20.7115 17.7927 20.6265 17.9987 20.4752 18.1505C20.3238 18.3023 20.1186 18.3876 19.9046 18.3876H11.2972C11.0832 18.3876 10.8779 18.3023 10.7266 18.1505C10.5753 17.9987 10.4902 17.7927 10.4902 17.578ZM10.4902 21.896C10.4902 21.6813 10.5753 21.4753 10.7266 21.3235C10.8779 21.1717 11.0832 21.0863 11.2972 21.0863H19.9046C20.1186 21.0863 20.3238 21.1717 20.4752 21.3235C20.6265 21.4753 20.7115 21.6813 20.7115 21.896C20.7115 22.1108 20.6265 22.3166 20.4752 22.4684C20.3238 22.6204 20.1186 22.7056 19.9046 22.7056H11.2972C11.0832 22.7056 10.8779 22.6204 10.7266 22.4684C10.5753 22.3166 10.4902 22.1108 10.4902 21.896Z" fill="white"/>
<path d="M28.3776 17.7053C30.1572 18.7362 31.0459 19.2522 31.177 19.9949C31.2097 20.1809 31.2097 20.3713 31.177 20.5573C31.0469 21.3022 30.1572 21.8171 28.3776 22.8479C26.598 23.879 25.7093 24.3938 25.0012 24.1358C24.8245 24.0714 24.6603 23.9764 24.5161 23.8552C23.9394 23.3693 23.9394 22.3385 23.9394 20.2766C23.9394 18.2148 23.9394 17.185 24.5161 16.6992C24.6603 16.5772 24.8248 16.4833 25.0012 16.4186C25.7082 16.1595 26.598 16.6755 28.3776 17.7053Z" fill="white"/>
</svg>
