<svg width="100" height="70" viewBox="0 0 100 70" fill="none" xmlns="http://www.w3.org/2000/svg">
<path d="M97.8 10.85C98.45 13.2 98.9 16.35 99.2 20.35C99.55 24.35 99.7 27.8 99.7 30.8L100 35C100 45.95 99.2 54 97.8 59.15C96.55 63.65 93.65 66.55 89.15 67.8C86.8 68.45 82.5 68.9 75.9 69.2C69.4 69.55 63.45 69.7 57.95 69.7L50 70C29.05 70 16 69.2 10.85 67.8C6.35 66.55 3.45 63.65 2.2 59.15C1.55 56.8 1.1 53.65 0.8 49.65C0.45 45.65 0.3 42.2 0.3 39.2L0 35C0 24.05 0.8 16 2.2 10.85C3.45 6.35 6.35 3.45 10.85 2.2C13.2 1.55 17.5 1.1 24.1 0.799999C30.6 0.449999 36.55 0.3 42.05 0.3L50 0C70.95 0 84 0.8 89.15 2.2C93.65 3.45 96.55 6.35 97.8 10.85Z" fill="#FF0033"/>
<path fill-rule="evenodd" clip-rule="evenodd" d="M25 16.9231C25 16.413 25.2026 15.9239 25.5633 15.5633C25.9239 15.2026 26.413 15 26.9231 15H73.0769C73.587 15 74.0761 15.2026 74.4367 15.5633C74.7974 15.9239 75 16.413 75 16.9231C75 17.4331 74.7974 17.9223 74.4367 18.2829C74.0761 18.6435 73.587 18.8462 73.0769 18.8462H26.9231C26.413 18.8462 25.9239 18.6435 25.5633 18.2829C25.2026 17.9223 25 17.4331 25 16.9231ZM25 27.1795C25 26.6695 25.2026 26.1803 25.5633 25.8197C25.9239 25.459 26.413 25.2564 26.9231 25.2564H73.0769C73.587 25.2564 74.0761 25.459 74.4367 25.8197C74.7974 26.1803 75 26.6695 75 27.1795C75 27.6895 74.7974 28.1787 74.4367 28.5393C74.0761 28.9 73.587 29.1026 73.0769 29.1026H26.9231C26.413 29.1026 25.9239 28.9 25.5633 28.5393C25.2026 28.1787 25 27.6895 25 27.1795ZM25 37.4359C25 36.9259 25.2026 36.4367 25.5633 36.0761C25.9239 35.7154 26.413 35.5128 26.9231 35.5128H47.4359C47.9459 35.5128 48.4351 35.7154 48.7957 36.0761C49.1564 36.4367 49.359 36.9259 49.359 37.4359C49.359 37.9459 49.1564 38.4351 48.7957 38.7957C48.4351 39.1564 47.9459 39.359 47.4359 39.359H26.9231C26.413 39.359 25.9239 39.1564 25.5633 38.7957C25.2026 38.4351 25 37.9459 25 37.4359ZM25 47.6923C25 47.1823 25.2026 46.6931 25.5633 46.3325C25.9239 45.9718 26.413 45.7692 26.9231 45.7692H47.4359C47.9459 45.7692 48.4351 45.9718 48.7957 46.3325C49.1564 46.6931 49.359 47.1823 49.359 47.6923C49.359 48.2023 49.1564 48.6915 48.7957 49.0521C48.4351 49.4128 47.9459 49.6154 47.4359 49.6154H26.9231C26.413 49.6154 25.9239 49.4128 25.5633 49.0521C25.2026 48.6915 25 48.2023 25 47.6923Z" fill="white"/>
<path d="M67.6283 37.7382C71.8693 40.187 73.9873 41.4126 74.3001 43.1767C74.378 43.6186 74.378 44.0707 74.3001 44.5126C73.9899 46.2818 71.8693 47.5049 67.6283 49.9536C63.3873 52.4023 61.2693 53.6254 59.5822 53.0126C59.1608 52.8595 58.7694 52.6339 58.4258 52.3459C57.0514 51.1921 57.0514 48.7434 57.0514 43.8459C57.0514 38.9485 57.0514 36.5024 58.4258 35.3485C58.7693 35.0588 59.1616 34.8357 59.5822 34.6818C61.2668 34.0665 63.3873 35.2921 67.6283 37.7382Z" fill="white"/>
</svg>
