<svg width="1148" height="116" viewBox="0 0 1148 116" fill="none" xmlns="http://www.w3.org/2000/svg">
<path d="M17.6641 4.6875L31.668 44.1211L45.6133 4.6875H62.8398L39.5781 58.8281V90H23.7578V58.8281L0.496094 4.6875H17.6641ZM64.7148 60.6445V56.0156C64.7148 51.0547 65.3203 46.6797 66.5312 42.8906C67.7422 39.0625 69.4609 35.8594 71.6875 33.2812C73.9141 30.7031 76.5703 28.75 79.6562 27.4219C82.7812 26.0937 86.2383 25.4297 90.0273 25.4297C93.8945 25.4297 97.3711 26.0937 100.457 27.4219C103.582 28.75 106.258 30.7031 108.484 33.2812C110.75 35.8594 112.469 39.0625 113.641 42.8906C114.852 46.6797 115.457 51.0547 115.457 56.0156V60.6445C115.457 65.6055 114.852 69.9805 113.641 73.7695C112.469 77.5586 110.75 80.7617 108.484 83.3789C106.258 85.957 103.582 87.9102 100.457 89.2383C97.3711 90.5273 93.9336 91.1719 90.1445 91.1719C86.3555 91.1719 82.8984 90.5273 79.7734 89.2383C76.6875 87.9102 74.0117 85.957 71.7461 83.3789C69.4805 80.7617 67.7422 77.5586 66.5312 73.7695C65.3203 69.9805 64.7148 65.6055 64.7148 60.6445ZM79.7734 56.0156V60.6445C79.7734 63.7305 80.0078 66.4062 80.4766 68.6719C80.9453 70.8984 81.6289 72.7539 82.5273 74.2383C83.4648 75.7227 84.5586 76.8359 85.8086 77.5781C87.0977 78.2812 88.543 78.6328 90.1445 78.6328C91.8633 78.6328 93.3672 78.2812 94.6562 77.5781C95.9453 76.8359 97.0195 75.7227 97.8789 74.2383C98.7383 72.7539 99.3828 70.8984 99.8125 68.6719C100.242 66.4062 100.457 63.7305 100.457 60.6445V56.0156C100.457 53.0078 100.203 50.3711 99.6953 48.1055C99.2266 45.8398 98.543 43.9648 97.6445 42.4805C96.7461 40.9961 95.6523 39.8828 94.3633 39.1406C93.0742 38.3594 91.6289 37.9688 90.0273 37.9688C88.4648 37.9688 87.0586 38.3594 85.8086 39.1406C84.5586 39.8828 83.4648 40.9961 82.5273 42.4805C81.6289 43.9648 80.9453 45.8398 80.4766 48.1055C80.0078 50.3711 79.7734 53.0078 79.7734 56.0156ZM157.527 74.8828V26.6016H172.586V90H158.465L157.527 74.8828ZM159.461 61.7578L163.855 61.6406C163.855 65.8984 163.465 69.8242 162.684 73.418C161.902 77.0117 160.691 80.1367 159.051 82.793C157.41 85.4492 155.32 87.5195 152.781 89.0039C150.281 90.4492 147.312 91.1719 143.875 91.1719C141.258 91.1719 138.875 90.7422 136.727 89.8828C134.578 88.9844 132.723 87.5977 131.16 85.7227C129.598 83.8086 128.387 81.3672 127.527 78.3984C126.668 75.3906 126.238 71.7969 126.238 67.6172V26.6016H141.297V67.7344C141.297 69.6875 141.453 71.3672 141.766 72.7734C142.117 74.1406 142.605 75.2539 143.23 76.1133C143.855 76.9336 144.578 77.5195 145.398 77.8711C146.219 78.2227 147.117 78.3984 148.094 78.3984C150.945 78.3984 153.191 77.6758 154.832 76.2305C156.512 74.7852 157.703 72.8125 158.406 70.3125C159.109 67.7734 159.461 64.9219 159.461 61.7578ZM218.816 4.6875V90H203.23V4.6875H218.816ZM240.32 4.6875V17.8125H182.078V4.6875H240.32ZM276.59 74.8828V26.6016H291.648V90H277.527L276.59 74.8828ZM278.523 61.7578L282.918 61.6406C282.918 65.8984 282.527 69.8242 281.746 73.418C280.965 77.0117 279.754 80.1367 278.113 82.793C276.473 85.4492 274.383 87.5195 271.844 89.0039C269.344 90.4492 266.375 91.1719 262.938 91.1719C260.32 91.1719 257.938 90.7422 255.789 89.8828C253.641 88.9844 251.785 87.5977 250.223 85.7227C248.66 83.8086 247.449 81.3672 246.59 78.3984C245.73 75.3906 245.301 71.7969 245.301 67.6172V26.6016H260.359V67.7344C260.359 69.6875 260.516 71.3672 260.828 72.7734C261.18 74.1406 261.668 75.2539 262.293 76.1133C262.918 76.9336 263.641 77.5195 264.461 77.8711C265.281 78.2227 266.18 78.3984 267.156 78.3984C270.008 78.3984 272.254 77.6758 273.895 76.2305C275.574 74.7852 276.766 72.8125 277.469 70.3125C278.172 67.7734 278.523 64.9219 278.523 61.7578ZM304.48 0H319.48V75.8203L318.367 90H304.48V0ZM353.055 56.0156V60.5859C353.055 65.7031 352.625 70.1758 351.766 74.0039C350.945 77.793 349.676 80.9766 347.957 83.5547C346.277 86.0938 344.148 88.0078 341.57 89.2969C338.992 90.5469 335.965 91.1719 332.488 91.1719C329.324 91.1719 326.59 90.4492 324.285 89.0039C321.98 87.5195 320.047 85.4688 318.484 82.8516C316.961 80.1953 315.73 77.0703 314.793 73.4766C313.855 69.8828 313.172 65.918 312.742 61.582V55.0195C313.133 50.7227 313.797 46.7773 314.734 43.1836C315.672 39.5508 316.902 36.4258 318.426 33.8086C319.949 31.1523 321.863 29.1016 324.168 27.6562C326.512 26.1719 329.266 25.4297 332.43 25.4297C335.945 25.4297 338.992 26.0742 341.57 27.3633C344.188 28.6133 346.336 30.5273 348.016 33.1055C349.695 35.6445 350.945 38.8281 351.766 42.6562C352.625 46.4844 353.055 50.9375 353.055 56.0156ZM338.055 60.5859V56.0156C338.055 52.9688 337.898 50.332 337.586 48.1055C337.312 45.8789 336.824 44.0234 336.121 42.5391C335.418 41.0547 334.422 39.9414 333.133 39.1992C331.844 38.457 330.203 38.0859 328.211 38.0859C326.414 38.0859 324.891 38.4375 323.641 39.1406C322.391 39.8438 321.336 40.8398 320.477 42.1289C319.617 43.3789 318.953 44.8633 318.484 46.582C318.055 48.3008 317.762 50.1562 317.605 52.1484V64.4531C317.801 67.1094 318.25 69.5117 318.953 71.6602C319.695 73.7695 320.809 75.4492 322.293 76.6992C323.816 77.9102 325.828 78.5156 328.328 78.5156C330.281 78.5156 331.883 78.1836 333.133 77.5195C334.383 76.8164 335.359 75.7617 336.062 74.3555C336.805 72.9102 337.312 71.0547 337.586 68.7891C337.898 66.5234 338.055 63.7891 338.055 60.5859ZM388.738 91.1719C384.52 91.1719 380.77 90.5273 377.488 89.2383C374.246 87.9492 371.492 86.0742 369.227 83.6133C366.961 81.1523 365.223 78.125 364.012 74.5312C362.84 70.9375 362.254 66.8164 362.254 62.168V56.4844C362.254 51.2109 362.859 46.6406 364.07 42.7734C365.281 38.8672 366.961 35.6445 369.109 33.1055C371.297 30.5273 373.914 28.6133 376.961 27.3633C380.047 26.0742 383.445 25.4297 387.156 25.4297C391.141 25.4297 394.617 26.0937 397.586 27.4219C400.594 28.7109 403.074 30.6445 405.027 33.2227C406.98 35.8008 408.426 39.0039 409.363 42.832C410.34 46.6211 410.828 51.0156 410.828 56.0156V63.2227H368.992V52.2656H396.062V50.8008C395.984 48.0664 395.652 45.7422 395.066 43.8281C394.48 41.9141 393.543 40.4688 392.254 39.4922C391.004 38.4766 389.285 37.9688 387.098 37.9688C385.379 37.9688 383.895 38.3203 382.645 39.0234C381.395 39.6875 380.379 40.7422 379.598 42.1875C378.855 43.5938 378.289 45.4883 377.898 47.8711C377.508 50.2148 377.312 53.0859 377.312 56.4844V62.168C377.312 65.1758 377.586 67.7344 378.133 69.8438C378.68 71.9141 379.48 73.6133 380.535 74.9414C381.59 76.2305 382.879 77.168 384.402 77.7539C385.926 78.3398 387.703 78.6328 389.734 78.6328C392.781 78.6328 395.457 78.0859 397.762 76.9922C400.066 75.8594 402.059 74.3555 403.738 72.4805L410.008 81.6797C408.875 83.2031 407.332 84.707 405.379 86.1914C403.426 87.6367 401.062 88.8281 398.289 89.7656C395.555 90.7031 392.371 91.1719 388.738 91.1719ZM478.328 59.1797H460.574V46.0547H478.328C481.023 46.0547 483.191 45.4883 484.832 44.3555C486.512 43.1836 487.723 41.5625 488.465 39.4922C489.246 37.4219 489.637 35.0781 489.637 32.4609C489.637 29.9219 489.246 27.5391 488.465 25.3125C487.723 23.0469 486.512 21.2305 484.832 19.8633C483.191 18.4961 481.023 17.8125 478.328 17.8125H465.379V90H449.676V4.6875H478.328C483.992 4.6875 488.836 5.87891 492.859 8.26172C496.922 10.6445 500.047 13.9258 502.234 18.1055C504.422 22.2461 505.516 26.9922 505.516 32.3438C505.516 37.8906 504.422 42.6562 502.234 46.6406C500.047 50.625 496.922 53.7109 492.859 55.8984C488.836 58.0859 483.992 59.1797 478.328 59.1797ZM532.41 0V90H517.352V0H532.41ZM574.891 76.2891V45.8203C574.891 43.75 574.617 42.1094 574.07 40.8984C573.562 39.6875 572.801 38.8086 571.785 38.2617C570.77 37.6758 569.52 37.3828 568.035 37.3828C566.434 37.3828 565.086 37.7148 563.992 38.3789C562.898 39.0039 562.078 39.9219 561.531 41.1328C561.023 42.3047 560.77 43.6914 560.77 45.293H545.711C545.711 42.6367 546.238 40.1172 547.293 37.7344C548.348 35.3516 549.871 33.2422 551.863 31.4062C553.855 29.5312 556.258 28.0664 559.07 27.0117C561.883 25.957 565.027 25.4297 568.504 25.4297C572.645 25.4297 576.316 26.1328 579.52 27.5391C582.762 28.9062 585.301 31.1133 587.137 34.1602C589.012 37.168 589.949 41.1133 589.949 45.9961V74.9414C589.949 78.1836 590.125 80.9375 590.477 83.2031C590.867 85.4688 591.434 87.4023 592.176 89.0039V90H576.941C576.277 88.3594 575.77 86.2891 575.418 83.7891C575.066 81.25 574.891 78.75 574.891 76.2891ZM576.824 51.3281L576.883 60.7031H570.555C568.797 60.7031 567.234 60.957 565.867 61.4648C564.539 61.9727 563.406 62.6953 562.469 63.6328C561.531 64.5703 560.828 65.6836 560.359 66.9727C559.891 68.2617 559.656 69.668 559.656 71.1914C559.656 72.9492 559.91 74.4141 560.418 75.5859C560.926 76.7188 561.668 77.5781 562.645 78.1641C563.621 78.7109 564.812 78.9844 566.219 78.9844C568.211 78.9844 569.93 78.5547 571.375 77.6953C572.859 76.8359 573.973 75.8203 574.715 74.6484C575.496 73.4375 575.789 72.3047 575.594 71.25L578.992 77.3438C578.602 78.7891 577.996 80.3125 577.176 81.9141C576.355 83.5156 575.301 85.0195 574.012 86.4258C572.762 87.832 571.219 88.9844 569.383 89.8828C567.586 90.7422 565.457 91.1719 562.996 91.1719C559.52 91.1719 556.375 90.4102 553.562 88.8867C550.789 87.3633 548.602 85.2148 547 82.4414C545.398 79.6289 544.598 76.2695 544.598 72.3633C544.598 69.1602 545.125 66.2695 546.18 63.6914C547.234 61.1133 548.777 58.9062 550.809 57.0703C552.879 55.2344 555.496 53.8281 558.66 52.8516C561.824 51.8359 565.535 51.3281 569.793 51.3281H576.824ZM617.781 82.9102L631.199 26.6016H646.902L626.043 99.5508C625.574 101.152 624.93 102.871 624.109 104.707C623.289 106.543 622.215 108.281 620.887 109.922C619.559 111.602 617.898 112.969 615.906 114.023C613.914 115.078 611.531 115.605 608.758 115.605C607.508 115.605 606.414 115.508 605.477 115.312C604.539 115.117 603.504 114.863 602.371 114.551L602.312 102.656C602.664 102.695 603.016 102.715 603.367 102.715C603.719 102.754 604.051 102.773 604.363 102.773C606.238 102.773 607.762 102.5 608.934 101.953C610.145 101.445 611.121 100.625 611.863 99.4922C612.605 98.3984 613.25 96.9531 613.797 95.1562L617.781 82.9102ZM613.094 26.6016L623.523 72.9492L625.867 89.8242L615.613 91.582L596.922 26.6016H613.094ZM670.691 0V90H655.633V0H670.691ZM700.34 26.6016V90H685.281V26.6016H700.34ZM684.52 10.0781C684.52 7.69531 685.262 5.74219 686.746 4.21875C688.23 2.65625 690.262 1.875 692.84 1.875C695.418 1.875 697.43 2.65625 698.875 4.21875C700.32 5.74219 701.043 7.69531 701.043 10.0781C701.043 12.4219 700.32 14.375 698.875 15.9375C697.43 17.4609 695.418 18.2227 692.84 18.2227C690.262 18.2227 688.23 17.4609 686.746 15.9375C685.262 14.375 684.52 12.4219 684.52 10.0781ZM742.879 73.0664C742.879 71.8555 742.488 70.7812 741.707 69.8438C740.965 68.9062 739.773 67.9492 738.133 66.9727C736.492 65.9961 734.324 64.9414 731.629 63.8086C728.699 62.6367 726.102 61.4453 723.836 60.2344C721.609 58.9844 719.715 57.6172 718.152 56.1328C716.59 54.6094 715.418 52.8906 714.637 50.9766C713.855 49.0234 713.465 46.7773 713.465 44.2383C713.465 41.6211 713.953 39.1797 714.93 36.9141C715.906 34.6484 717.312 32.6562 719.148 30.9375C721.023 29.2188 723.289 27.8711 725.945 26.8945C728.602 25.918 731.59 25.4297 734.91 25.4297C739.559 25.4297 743.543 26.2695 746.863 27.9492C750.223 29.5898 752.781 31.8945 754.539 34.8633C756.336 37.832 757.234 41.25 757.234 45.1172H742.234C742.234 43.6328 741.98 42.2852 741.473 41.0742C740.965 39.8633 740.164 38.9062 739.07 38.2031C737.977 37.4609 736.57 37.0898 734.852 37.0898C733.406 37.0898 732.156 37.3828 731.102 37.9688C730.086 38.5547 729.305 39.3359 728.758 40.3125C728.211 41.25 727.938 42.3242 727.938 43.5352C727.938 44.4727 728.113 45.293 728.465 45.9961C728.855 46.6992 729.461 47.3828 730.281 48.0469C731.102 48.6719 732.195 49.3359 733.562 50.0391C734.969 50.7031 736.707 51.4844 738.777 52.3828C742.996 53.9844 746.492 55.6836 749.266 57.4805C752.039 59.2383 754.109 61.3086 755.477 63.6914C756.844 66.0352 757.527 68.9648 757.527 72.4805C757.527 75.2539 757 77.793 755.945 80.0977C754.891 82.4023 753.367 84.3945 751.375 86.0742C749.422 87.7148 747.059 88.9844 744.285 89.8828C741.512 90.7422 738.406 91.1719 734.969 91.1719C729.93 91.1719 725.672 90.1758 722.195 88.1836C718.758 86.1914 716.141 83.6133 714.344 80.4492C712.586 77.2852 711.707 73.9844 711.707 70.5469H726.121C726.199 72.8125 726.648 74.6094 727.469 75.9375C728.328 77.2266 729.441 78.125 730.809 78.6328C732.176 79.1406 733.641 79.3945 735.203 79.3945C736.922 79.3945 738.348 79.1602 739.48 78.6914C740.613 78.1836 741.453 77.4609 742 76.5234C742.586 75.5469 742.879 74.3945 742.879 73.0664ZM795.379 26.6016V38.0273H763.68V26.6016H795.379ZM771.648 11.0156H786.59V71.4844C786.59 73.3203 786.785 74.7461 787.176 75.7617C787.566 76.7383 788.133 77.4023 788.875 77.7539C789.656 78.1055 790.594 78.2812 791.688 78.2812C792.508 78.2812 793.289 78.2227 794.031 78.1055C794.773 77.9883 795.32 77.8711 795.672 77.7539L795.613 89.707C794.48 90.1367 793.23 90.4883 791.863 90.7617C790.496 91.0352 788.855 91.1719 786.941 91.1719C783.895 91.1719 781.219 90.5859 778.914 89.4141C776.648 88.2031 774.871 86.25 773.582 83.5547C772.293 80.8203 771.648 77.2461 771.648 72.832V11.0156ZM851.746 74.2383L865.34 4.6875H874.07L875.301 18.6914L860.535 90H851.219L851.746 74.2383ZM845.066 4.6875L855.965 74.1211L855.262 90H845.184L829.48 4.6875H845.066ZM887.781 73.8281L898.621 4.6875H914.148L898.504 90H888.426L887.781 73.8281ZM878.406 4.6875L892.059 74.5312L892.352 90H883.094L868.562 18.5742L869.793 4.6875H878.406ZM939.168 26.6016V90H924.109V26.6016H939.168ZM923.348 10.0781C923.348 7.69531 924.09 5.74219 925.574 4.21875C927.059 2.65625 929.09 1.875 931.668 1.875C934.246 1.875 936.258 2.65625 937.703 4.21875C939.148 5.74219 939.871 7.69531 939.871 10.0781C939.871 12.4219 939.148 14.375 937.703 15.9375C936.258 17.4609 934.246 18.2227 931.668 18.2227C929.09 18.2227 927.059 17.4609 925.574 15.9375C924.09 14.375 923.348 12.4219 923.348 10.0781ZM995.594 77.4609V90H955.75V77.4609H995.594ZM995.008 36.0352L961.258 90H951.414V80.2148L984.988 26.6016H995.008V36.0352ZM989.559 26.6016V39.1992H951.941V26.6016H989.559ZM1035.55 76.2891V45.8203C1035.55 43.75 1035.28 42.1094 1034.73 40.8984C1034.23 39.6875 1033.46 38.8086 1032.45 38.2617C1031.43 37.6758 1030.18 37.3828 1028.7 37.3828C1027.1 37.3828 1025.75 37.7148 1024.66 38.3789C1023.56 39.0039 1022.74 39.9219 1022.2 41.1328C1021.69 42.3047 1021.43 43.6914 1021.43 45.293H1006.38C1006.38 42.6367 1006.9 40.1172 1007.96 37.7344C1009.01 35.3516 1010.54 33.2422 1012.53 31.4062C1014.52 29.5312 1016.92 28.0664 1019.73 27.0117C1022.55 25.957 1025.69 25.4297 1029.17 25.4297C1033.31 25.4297 1036.98 26.1328 1040.18 27.5391C1043.43 28.9062 1045.96 31.1133 1047.8 34.1602C1049.68 37.168 1050.61 41.1133 1050.61 45.9961V74.9414C1050.61 78.1836 1050.79 80.9375 1051.14 83.2031C1051.53 85.4688 1052.1 87.4023 1052.84 89.0039V90H1037.61C1036.94 88.3594 1036.43 86.2891 1036.08 83.7891C1035.73 81.25 1035.55 78.75 1035.55 76.2891ZM1037.49 51.3281L1037.55 60.7031H1031.22C1029.46 60.7031 1027.9 60.957 1026.53 61.4648C1025.2 61.9727 1024.07 62.6953 1023.13 63.6328C1022.2 64.5703 1021.49 65.6836 1021.02 66.9727C1020.55 68.2617 1020.32 69.668 1020.32 71.1914C1020.32 72.9492 1020.57 74.4141 1021.08 75.5859C1021.59 76.7188 1022.33 77.5781 1023.31 78.1641C1024.29 78.7109 1025.48 78.9844 1026.88 78.9844C1028.88 78.9844 1030.59 78.5547 1032.04 77.6953C1033.52 76.8359 1034.64 75.8203 1035.38 74.6484C1036.16 73.4375 1036.45 72.3047 1036.26 71.25L1039.66 77.3438C1039.27 78.7891 1038.66 80.3125 1037.84 81.9141C1037.02 83.5156 1035.96 85.0195 1034.68 86.4258C1033.43 87.832 1031.88 88.9844 1030.05 89.8828C1028.25 90.7422 1026.12 91.1719 1023.66 91.1719C1020.18 91.1719 1017.04 90.4102 1014.23 88.8867C1011.45 87.3633 1009.27 85.2148 1007.66 82.4414C1006.06 79.6289 1005.26 76.2695 1005.26 72.3633C1005.26 69.1602 1005.79 66.2695 1006.84 63.6914C1007.9 61.1133 1009.44 58.9062 1011.47 57.0703C1013.54 55.2344 1016.16 53.8281 1019.32 52.8516C1022.49 51.8359 1026.2 51.3281 1030.46 51.3281H1037.49ZM1078.74 39.7852V90H1063.74V26.6016H1077.98L1078.74 39.7852ZM1093.86 26.1328L1093.74 41.0742C1092.96 40.918 1092.08 40.8008 1091.1 40.7227C1090.16 40.6445 1089.29 40.6055 1088.46 40.6055C1086.63 40.6055 1085.05 40.918 1083.72 41.543C1082.39 42.168 1081.28 43.0664 1080.38 44.2383C1079.48 45.4102 1078.8 46.8555 1078.33 48.5742C1077.86 50.2539 1077.57 52.168 1077.45 54.3164L1074.4 53.7891C1074.4 49.7266 1074.71 45.9766 1075.34 42.5391C1076 39.1016 1076.96 36.1133 1078.21 33.5742C1079.5 30.9961 1081.08 29.0039 1082.96 27.5977C1084.83 26.1523 1086.98 25.4297 1089.4 25.4297C1090.14 25.4297 1090.95 25.5078 1091.8 25.6641C1092.7 25.7812 1093.39 25.9375 1093.86 26.1328ZM1132.88 76.4062V0H1147.88V90L1134.29 90.0586L1132.88 76.4062ZM1099.36 60.7031V56.1328C1099.36 50.9375 1099.81 46.4258 1100.71 42.5977C1101.65 38.7305 1103 35.5273 1104.75 32.9883C1106.55 30.4492 1108.74 28.5547 1111.32 27.3047C1113.89 26.0547 1116.82 25.4297 1120.11 25.4297C1123.19 25.4297 1125.89 26.1719 1128.19 27.6562C1130.5 29.1016 1132.43 31.1523 1133.99 33.8086C1135.59 36.4648 1136.88 39.6289 1137.86 43.3008C1138.84 46.9336 1139.52 50.9375 1139.91 55.3125V61.875C1139.44 66.0547 1138.72 69.9414 1137.74 73.5352C1136.8 77.1289 1135.54 80.2344 1133.93 82.8516C1132.33 85.4688 1130.38 87.5195 1128.07 89.0039C1125.81 90.4492 1123.13 91.1719 1120.05 91.1719C1116.77 91.1719 1113.84 90.5273 1111.26 89.2383C1108.72 87.9102 1106.55 85.9766 1104.75 83.4375C1103 80.8594 1101.65 77.6758 1100.71 73.8867C1099.81 70.0586 1099.36 65.6641 1099.36 60.7031ZM1114.42 56.1328V60.7031C1114.42 63.7891 1114.6 66.4648 1114.95 68.7305C1115.3 70.957 1115.85 72.793 1116.59 74.2383C1117.37 75.6445 1118.39 76.6992 1119.64 77.4023C1120.93 78.0664 1122.49 78.3984 1124.32 78.3984C1126.67 78.3984 1128.56 77.8125 1130.01 76.6406C1131.49 75.4688 1132.62 73.8672 1133.41 71.8359C1134.19 69.7656 1134.7 67.4219 1134.93 64.8047V52.4414C1134.81 50.332 1134.5 48.3984 1133.99 46.6406C1133.48 44.8828 1132.8 43.3789 1131.94 42.1289C1131.08 40.8398 1130.03 39.8438 1128.78 39.1406C1127.53 38.4375 1126.06 38.0859 1124.38 38.0859C1122.55 38.0859 1120.98 38.457 1119.7 39.1992C1118.45 39.9023 1117.43 40.9766 1116.65 42.4219C1115.91 43.8672 1115.34 45.7422 1114.95 48.0469C1114.6 50.3125 1114.42 53.0078 1114.42 56.1328Z" fill="white"/>
</svg>
